<svg width="17" height="17" viewBox="0 0 17 17" fill="none" xmlns="http://www.w3.org/2000/svg">
<path d="M12.1004 6C12.1004 9.31371 9.40189 12 6.07305 12C2.74421 12 0.0456543 9.31371 0.0456543 6C0.0456543 2.68629 2.74421 0 6.07305 0C9.40189 0 12.1004 2.68629 12.1004 6ZM2.43253 6C2.43253 8.00146 4.06245 9.62397 6.07305 9.62397C8.08365 9.62397 9.71357 8.00146 9.71357 6C9.71357 3.99854 8.08365 2.37603 6.07305 2.37603C4.06245 2.37603 2.43253 3.99854 2.43253 6Z" fill="white"/>
<rect width="10.0229" height="2.00457" rx="1" transform="matrix(-0.708716 -0.705494 0.708716 -0.705494 15.1855 16.7782)" fill="white"/>
</svg>
